# xmcd
#
# Track frame offsets:
#	167
#	14975
#	30200
#	41205
#	60242
#	76700
#	103175
#	118550
#	133100
#	160755
#	169465
#	194022
#
# Disc length: 2709 seconds
#
# Revision: 0
# Processed by: cddbd v1.5.2PL0 Copyright (c) Steve Scherf et al.
# Submitted via: EasyCDDAExtractor 5.0.2.1
#
DISCID=9f0a930c
DTITLE=Star Club West - Oh Dry Blue Menthol
DYEAR=2000
DGENRE=Polka
TTITLE0=Chamonix
TTITLE1=Linda Trip
TTITLE2=Leave The Bar
TTITLE3=Rainbow Is A Sleeping Bag
TTITLE4=Know Your Park
TTITLE5=Audrey Blumenthal
TTITLE6=Woody
TTITLE7=Replay
TTITLE8=Barely Sweet
TTITLE9=Skiparadis Dadstein
TTITLE10=Karma
TTITLE11=Comme I Want
EXTD=
EXTT0=
EXTT1=
EXTT2=
EXTT3=
EXTT4=
EXTT5=
EXTT6=
EXTT7=
EXTT8=
EXTT9=
EXTT10=
EXTT11=
PLAYORDER=
